<?xml version="1.0" encoding="utf-8"?>
<!-- Generator: Adobe Illustrator 27.9.1, SVG Export Plug-In . SVG Version: 6.00 Build 0)  -->
<svg version="1.1" id="Layer_1" xmlns="http://www.w3.org/2000/svg" xmlns:xlink="http://www.w3.org/1999/xlink" x="0px" y="0px"
	 viewBox="0 0 363 129" style="enable-background:new 0 0 363 129;" xml:space="preserve">
<style type="text/css">
	.st0{fill:#828282;}
	.st1{fill:url(#SVGID_1_);}
	.st2{fill:url(#SVGID_00000109720665115779549390000017295027864914480823_);}
	.st3{fill:url(#SVGID_00000037689337524250634650000006826509123468080287_);}
	.st4{fill:url(#SVGID_00000161601543105623962220000017060040209007847571_);}
	.st5{fill:url(#SVGID_00000176023503086555966580000013627250725074340490_);}
	.st6{fill:url(#SVGID_00000181809164281732424400000003907853534121945759_);}
	.st7{fill:url(#SVGID_00000178204084026111530870000000708415067927236526_);}
	.st8{fill:url(#SVGID_00000014607492839915290080000006794873817588672403_);}
	.st9{fill:url(#SVGID_00000127025088987020650380000009344906012588877209_);}
</style>
<g>
	<g>
		<path class="st0" d="M179.3,88.7c-0.5,0.6-1,0.8-1.1,1.2c-1,2.5-1.9,5.1-3,7.6c-0.5,1.2-1.3,2.3-1.8,3.6c-0.5,1.2-0.7,2.5-1.2,3.7
			c-0.6,1.8-1.3,3.5-2,5.2c-0.1,0.3-0.9,0.7-1.1,0.5c-0.6-0.3-1.4-0.7-1.7-1.3c-2-4.5-3.8-9.1-5.7-13.7c-0.7-1.7-1.4-3.4-2.1-5.1
			c-0.1-0.3-0.3-0.5-0.7-0.9c-0.2,0.8-0.4,1.3-0.4,1.8c-0.2,4.5-0.4,9-0.5,13.5c-0.1,2.4,0.7,3.2,3.1,4c0.4,0.1,0.7,0.8,1,1.2
			c-0.4,0.2-0.8,0.7-1.1,0.7c-3,0-5.9,0-8.9,0c-0.3,0-1-0.6-0.9-0.8c0.1-0.4,0.5-0.8,0.9-1.1c0.2-0.2,0.7-0.1,1-0.2
			c1.9-0.5,2.1-2.1,2.3-3.7c0.1-0.6,0-1.3,0.1-2c0.2-5.5,0.3-11,0.5-16.4c0-1.8-0.4-2.3-2.1-2.7c-0.3-0.1-0.7-0.1-0.9-0.3
			c-0.3-0.3-0.6-0.8-0.7-1.2c0-0.2,0.7-0.6,1-0.6c2.5,0,5.1-0.1,7.6,0.1c0.5,0,1.3,0.5,1.5,1c1.8,3.7,3.4,7.4,5.1,11.1
			c0.9,2.1,1.9,4.1,2.9,6.1c0.1,0.2,0.8,0.2,0.8,0.1c0.4-0.6,0.7-1.2,1-1.8c0.4-1,0.7-2,1.1-3c0.6-1.4,1.3-2.7,1.9-4.1
			c1.2-2.8,2.4-5.7,3.6-8.6c0.3-0.8,0.8-1,1.4-1c2.7,0,5.4,0,8.1,0.1c0.4,0,1.1,0.4,1.2,0.7c0.3,0.8-0.3,1.2-1,1.4
			c-3.2,0.7-3.3,1.2-3,4.7c0.2,1.7,0.1,3.5,0.2,5.2c0.1,3.9,0.2,7.7,0.5,11.6c0.1,2.5,0.4,2.8,2.9,3.5c0.7,0.2,1.2,0.8,1,1.4
			c-0.2,0.4-0.9,0.8-1.4,0.8c-1.8,0-3.6-0.2-5.4-0.3c-1.3,0-2.6,0.2-3.9,0.2c-0.9,0-1.8-0.1-2.7-0.3c-0.3-0.1-0.6-0.6-0.6-0.9
			c0-0.4,0.3-0.8,0.7-1c0.7-0.4,1.5-0.5,2.2-0.9c0.4-0.3,0.9-0.9,0.9-1.3c0-3.6-0.2-7.2-0.3-10.8c0-1.7-0.1-3.4-0.1-5.1
			C179.4,89.9,179.3,89.5,179.3,88.7z"/>
		<path class="st0" d="M240,80.6c1.5,0,3-0.1,4.5,0c2.8,0.3,5.5,0.9,7.9,2.5c2.9,2,5.1,4.7,6.1,8c0.8,2.5,0.9,5.2,0.4,7.9
			c-0.4,2.2-1.2,4.2-2.5,5.9c-2.8,3.8-6.5,5.6-11.2,5.6c-4.3,0-8.6-0.1-12.9-0.2c-1.3,0-2.6,0.1-3.9,0.1c-0.6,0-1.4,0.1-1.5-0.9
			c-0.1-0.9,0.4-1.2,1.1-1.4c0.5-0.1,0.9-0.3,1.4-0.5c1.6-0.6,1.8-1,1.8-2.7c0-6.3,0-12.6,0-18.9c0-1.5-0.4-1.8-1.9-1.7
			c-0.4,0-0.8,0-1.1,0.1c-0.6,0-1.2,0-1.3-0.7c-0.2-0.8,0.1-1.4,0.9-1.7c0.5-0.2,0.9-0.4,1.4-0.4c3.6-0.5,7.2-0.9,10.8-1.4
			C240,80.4,240,80.5,240,80.6z M237.7,94.1C237.7,94.1,237.7,94.1,237.7,94.1c0,3-0.1,5.9,0,8.9c0.2,3.7,1.7,4.8,4.9,5.1
			c4.4,0.4,8.1-2.3,8.9-7c0.6-3.3,0.7-6.6,0-9.8c-1.4-6-6.4-8.9-12.3-8c-1.2,0.2-1.7,0.8-1.7,2C237.7,88.2,237.7,91.2,237.7,94.1z"
			/>
		<path class="st0" d="M132.1,110.3c-2,0.1-4,0.2-6,0.3c-0.1,0-0.2,0-0.3,0c-0.5-0.2-1.5-0.4-1.5-0.7c-0.2-0.9,0.7-1.2,1.4-1.3
			c1.9-0.5,2.4-1.1,2.4-3c0-4.4,0-8.8-0.1-13.2c0-2.2-0.2-4.4-0.3-6.7c-0.1-1.8-0.9-2.4-2.3-2.5c-0.2,0-0.5-0.1-0.7-0.2
			c-0.6-0.2-1.4-0.5-1-1.3c0.2-0.5,1.1-0.9,1.7-0.9c3.3,0,6.6,0.2,10,0.3c1.3,0,2.7-0.5,4-0.3c2.1,0.3,4.2,0.4,6,1.6
			c3.2,2.1,4.5,6.1,3.4,9.7c-0.9,2.7-2.6,4.7-5.2,5.5c-2.4,0.8-4.9,0.8-7.2-0.6c-0.3-0.2-0.5-0.8-0.4-1.2c0.1-0.3,0.6-0.7,0.9-0.8
			c0.7-0.2,1.6-0.1,2.3-0.3c1.8-0.6,2.8-2,3.1-3.8c0.3-1.9,0.2-3.7-0.9-5.3c-0.5-0.8-1.5-1.5-2.3-1.9c-0.8-0.4-1.9-0.3-2.8-0.3
			c-1.3,0-1.8,0.6-1.8,1.9c0,2,0.2,3.9,0.2,5.9c0,4.8,0,9.7,0,14.5c0,2.5,0.3,2.8,2.7,2.9c0.5,0,1.1,0.1,1.3,0.4
			c0.6,0.6,0.1,1.5-0.9,1.6c-1.8,0-3.7,0-5.5,0C132.1,110.4,132.1,110.3,132.1,110.3z"/>
		<path class="st0" d="M196.3,93.1c0-2.5,0-5.1,0-7.6c0-1.7-0.4-1.9-2-2.2c-0.8-0.1-2,0.1-1.8-1.2c0.1-1.2,1.3-0.7,2-0.7
			c3.6-0.1,7.2,0,10.8,0c0.3,0,0.7-0.1,1,0.1c0.4,0.2,1,0.6,0.9,0.8c-0.1,0.4-0.4,0.9-0.8,1.1c-0.5,0.2-1.1,0.1-1.6,0.1
			c-1.5,0.1-1.9,0.4-1.9,1.9c0,4.4,0,8.8,0.1,13.1c0,1.8,0.1,3.5,0.3,5.3c0.4,3,2.4,4.8,5.3,5.1c3,0.4,5.9,0.1,7.9-2.5
			c0.9-1.1,1.6-2.6,1.7-4c0.2-3.4,0.2-6.8,0-10.3c-0.1-2.4-0.5-4.8-0.8-7.2c-0.1-0.9-0.7-1.3-1.6-1.4c-0.6-0.1-1.2,0-1.7-0.2
			c-0.3-0.2-0.6-0.7-0.7-1.1c0-0.2,0.5-0.7,0.8-0.7c3,0,5.9,0,8.9,0c0.3,0,0.8,0.4,0.8,0.6c0,0.4-0.2,1-0.5,1.2
			c-0.5,0.3-1.2,0.4-1.8,0.4c-1,0.1-1.6,0.5-1.5,1.6c0.1,3.6,0.2,7.3,0.5,10.9c0.2,3.1,0.2,6.1-0.6,9c-0.5,1.8-1.9,3.2-3.5,4.2
			c-3.7,2.3-7.9,2.6-12,1.8c-2.8-0.5-5.5-1.6-6.9-4.4c-0.3-0.6-0.5-1.2-0.6-1.8c-0.9-2.8-0.9-5.7-0.8-8.5
			C196.3,95.4,196.3,94.3,196.3,93.1C196.3,93.1,196.3,93.1,196.3,93.1z"/>
		<path class="st0" d="M122.4,105.9c0,0.7-0.1,1.5-0.1,2.2c-0.1,1.9-0.7,2.5-2.5,2.5c-4.9-0.1-9.9-0.2-14.8-0.2c-3,0-6,0.1-9,0.1
			c-0.7,0-1.4-0.1-1.3-1c0-0.3,0.3-0.8,0.6-0.9c1-0.3,2-0.7,3-0.8c1-0.1,1.4-0.7,1.4-1.6c0-4.8,0-9.6-0.1-14.4c0-2-0.1-4.1-0.2-6.1
			c0-1.1-0.7-1.7-1.7-2c-0.5-0.2-1-0.3-1.5-0.5c-0.7-0.3-1.1-0.8-0.9-1.5c0.2-0.8,0.8-0.9,1.5-0.9c3.2,0.1,6.4,0.3,9.6,0.4
			c0.6,0,1.2-0.2,1.8-0.3c0.5,0,1.2,0,1.6,0.2c0.8,0.6,0.8,1.4-0.2,1.9c-0.6,0.3-1.2,0.5-1.8,0.6c-1.6,0.3-1.8,0.5-1.8,2.1
			c0,2,0,4.1,0,6.1c0,4.7,0,9.4,0,14.1c0,2,0.2,2.3,2.1,2.2c2.2-0.1,4.4-0.2,6.5-0.5c2.3-0.3,3.9-1.6,4.8-3.8c0-0.1,0.1-0.2,0.1-0.3
			c0.5-0.8,0.8-1.9,2.1-1.6c1.2,0.3,0.8,1.4,0.8,2.2C122.5,104.6,122.4,105.3,122.4,105.9z"/>
	</g>
	<circle class="st0" cx="76" cy="94.6" r="4"/>
	<circle class="st0" cx="275" cy="95.6" r="4"/>
</g>
<g>
	
		<image style="overflow:visible;opacity:0.75;" width="358" height="80" xlink:href="C51196906D6F4DD1.png"  transform="matrix(1 0 0 1 2 11)">
	</image>
	<g>
		<g>
			<g>
				<linearGradient id="SVGID_1_" gradientUnits="userSpaceOnUse" x1="16.4706" y1="18.9396" x2="16.4706" y2="80.6895">
					<stop  offset="0" style="stop-color:#8383CA"/>
					<stop  offset="5.758243e-02" style="stop-color:#8B8BCE"/>
					<stop  offset="0.148" style="stop-color:#A2A2D7"/>
					<stop  offset="0.26" style="stop-color:#C6C6E7"/>
					<stop  offset="0.3881" style="stop-color:#F9F9FC"/>
					<stop  offset="0.4028" style="stop-color:#FFFFFF"/>
					<stop  offset="0.4228" style="stop-color:#FDFDFD"/>
					<stop  offset="0.4331" style="stop-color:#F5F5F5"/>
					<stop  offset="0.4412" style="stop-color:#E8E8E8"/>
					<stop  offset="0.4482" style="stop-color:#D5D5D5"/>
					<stop  offset="0.4544" style="stop-color:#BDBDBC"/>
					<stop  offset="0.4601" style="stop-color:#9F9F9D"/>
					<stop  offset="0.4653" style="stop-color:#7C7C7A"/>
					<stop  offset="0.4668" style="stop-color:#71716F"/>
					<stop  offset="0.5119" style="stop-color:#868685"/>
					<stop  offset="0.5822" style="stop-color:#A0A0A0"/>
					<stop  offset="0.6589" style="stop-color:#B4B5B5"/>
					<stop  offset="0.7442" style="stop-color:#C2C3C4"/>
					<stop  offset="0.845" style="stop-color:#CACBCC"/>
					<stop  offset="1" style="stop-color:#CDCECF"/>
				</linearGradient>
				<polygon class="st1" points="9,18.6 9,78.9 24,73.6 24,18.6 				"/>
			</g>
			<g>
				
					<linearGradient id="SVGID_00000165929961991327199520000014140097137338377880_" gradientUnits="userSpaceOnUse" x1="59.16" y1="18.9396" x2="59.16" y2="80.6895">
					<stop  offset="0" style="stop-color:#8383CA"/>
					<stop  offset="5.758243e-02" style="stop-color:#8B8BCE"/>
					<stop  offset="0.148" style="stop-color:#A2A2D7"/>
					<stop  offset="0.26" style="stop-color:#C6C6E7"/>
					<stop  offset="0.3881" style="stop-color:#F9F9FC"/>
					<stop  offset="0.4028" style="stop-color:#FFFFFF"/>
					<stop  offset="0.4228" style="stop-color:#FDFDFD"/>
					<stop  offset="0.4331" style="stop-color:#F5F5F5"/>
					<stop  offset="0.4412" style="stop-color:#E8E8E8"/>
					<stop  offset="0.4482" style="stop-color:#D5D5D5"/>
					<stop  offset="0.4544" style="stop-color:#BDBDBC"/>
					<stop  offset="0.4601" style="stop-color:#9F9F9D"/>
					<stop  offset="0.4653" style="stop-color:#7C7C7A"/>
					<stop  offset="0.4668" style="stop-color:#71716F"/>
					<stop  offset="0.5119" style="stop-color:#868685"/>
					<stop  offset="0.5822" style="stop-color:#A0A0A0"/>
					<stop  offset="0.6589" style="stop-color:#B4B5B5"/>
					<stop  offset="0.7442" style="stop-color:#C2C3C4"/>
					<stop  offset="0.845" style="stop-color:#CACBCC"/>
					<stop  offset="1" style="stop-color:#CDCECF"/>
				</linearGradient>
				<polygon style="fill:url(#SVGID_00000165929961991327199520000014140097137338377880_);" points="35.4,18.6 35.4,70.3 49,68.6 
					49,39.5 64,64.6 82,63.6 82.9,18.6 69.8,18.6 70,48.6 54.2,18.6 				"/>
			</g>
			
				<linearGradient id="SVGID_00000145765926356615934350000012179172954880852657_" gradientUnits="userSpaceOnUse" x1="94.6709" y1="18.5625" x2="94.6709" y2="18.5625">
				<stop  offset="0" style="stop-color:#8383CA"/>
				<stop  offset="5.758243e-02" style="stop-color:#8B8BCE"/>
				<stop  offset="0.148" style="stop-color:#A2A2D7"/>
				<stop  offset="0.26" style="stop-color:#C6C6E7"/>
				<stop  offset="0.3881" style="stop-color:#F9F9FC"/>
				<stop  offset="0.4028" style="stop-color:#FFFFFF"/>
				<stop  offset="0.4228" style="stop-color:#FDFDFD"/>
				<stop  offset="0.4331" style="stop-color:#F5F5F5"/>
				<stop  offset="0.4412" style="stop-color:#E8E8E8"/>
				<stop  offset="0.4482" style="stop-color:#D5D5D5"/>
				<stop  offset="0.4544" style="stop-color:#BDBDBC"/>
				<stop  offset="0.4601" style="stop-color:#9F9F9D"/>
				<stop  offset="0.4653" style="stop-color:#7C7C7A"/>
				<stop  offset="0.4668" style="stop-color:#71716F"/>
				<stop  offset="0.5119" style="stop-color:#868685"/>
				<stop  offset="0.5822" style="stop-color:#A0A0A0"/>
				<stop  offset="0.6589" style="stop-color:#B4B5B5"/>
				<stop  offset="0.7442" style="stop-color:#C2C3C4"/>
				<stop  offset="0.845" style="stop-color:#CACBCC"/>
				<stop  offset="1" style="stop-color:#CDCECF"/>
			</linearGradient>
			<path style="fill:url(#SVGID_00000145765926356615934350000012179172954880852657_);" d="M94.7,18.6"/>
			
				<linearGradient id="SVGID_00000079484402961160397460000002032658573023291832_" gradientUnits="userSpaceOnUse" x1="114.2487" y1="18.9396" x2="114.2487" y2="80.6895">
				<stop  offset="0" style="stop-color:#8383CA"/>
				<stop  offset="5.758243e-02" style="stop-color:#8B8BCE"/>
				<stop  offset="0.148" style="stop-color:#A2A2D7"/>
				<stop  offset="0.26" style="stop-color:#C6C6E7"/>
				<stop  offset="0.3881" style="stop-color:#F9F9FC"/>
				<stop  offset="0.4028" style="stop-color:#FFFFFF"/>
				<stop  offset="0.4228" style="stop-color:#FDFDFD"/>
				<stop  offset="0.4331" style="stop-color:#F5F5F5"/>
				<stop  offset="0.4412" style="stop-color:#E8E8E8"/>
				<stop  offset="0.4482" style="stop-color:#D5D5D5"/>
				<stop  offset="0.4544" style="stop-color:#BDBDBC"/>
				<stop  offset="0.4601" style="stop-color:#9F9F9D"/>
				<stop  offset="0.4653" style="stop-color:#7C7C7A"/>
				<stop  offset="0.4668" style="stop-color:#71716F"/>
				<stop  offset="0.5119" style="stop-color:#868685"/>
				<stop  offset="0.5822" style="stop-color:#A0A0A0"/>
				<stop  offset="0.6589" style="stop-color:#B4B5B5"/>
				<stop  offset="0.7442" style="stop-color:#C2C3C4"/>
				<stop  offset="0.845" style="stop-color:#CACBCC"/>
				<stop  offset="1" style="stop-color:#CDCECF"/>
			</linearGradient>
			<polygon style="fill:url(#SVGID_00000079484402961160397460000002032658573023291832_);" points="94.5,63.1 109.5,62.1 
				109.5,47.2 128.6,47.2 128.5,36.1 109.6,36.1 108.5,30.1 134,30.1 134,18.6 94.7,18.6 			"/>
			
				<linearGradient id="SVGID_00000127012665394714895250000006685270529520215964_" gradientUnits="userSpaceOnUse" x1="149.1711" y1="18.9396" x2="149.1711" y2="80.6895">
				<stop  offset="0" style="stop-color:#8383CA"/>
				<stop  offset="5.758243e-02" style="stop-color:#8B8BCE"/>
				<stop  offset="0.148" style="stop-color:#A2A2D7"/>
				<stop  offset="0.26" style="stop-color:#C6C6E7"/>
				<stop  offset="0.3881" style="stop-color:#F9F9FC"/>
				<stop  offset="0.4028" style="stop-color:#FFFFFF"/>
				<stop  offset="0.4228" style="stop-color:#FDFDFD"/>
				<stop  offset="0.4331" style="stop-color:#F5F5F5"/>
				<stop  offset="0.4412" style="stop-color:#E8E8E8"/>
				<stop  offset="0.4482" style="stop-color:#D5D5D5"/>
				<stop  offset="0.4544" style="stop-color:#BDBDBC"/>
				<stop  offset="0.4601" style="stop-color:#9F9F9D"/>
				<stop  offset="0.4653" style="stop-color:#7C7C7A"/>
				<stop  offset="0.4668" style="stop-color:#71716F"/>
				<stop  offset="0.5119" style="stop-color:#868685"/>
				<stop  offset="0.5822" style="stop-color:#A0A0A0"/>
				<stop  offset="0.6589" style="stop-color:#B4B5B5"/>
				<stop  offset="0.7442" style="stop-color:#C2C3C4"/>
				<stop  offset="0.845" style="stop-color:#CACBCC"/>
				<stop  offset="1" style="stop-color:#CDCECF"/>
			</linearGradient>
			<polygon style="fill:url(#SVGID_00000127012665394714895250000006685270529520215964_);" points="142.2,18.6 141.5,61.1 
				156.9,61.1 156.9,18.6 			"/>
			
				<linearGradient id="SVGID_00000117669258869985812830000003561668920590918036_" gradientUnits="userSpaceOnUse" x1="191.8169" y1="18.9396" x2="191.8169" y2="80.6895">
				<stop  offset="0" style="stop-color:#8383CA"/>
				<stop  offset="5.758243e-02" style="stop-color:#8B8BCE"/>
				<stop  offset="0.148" style="stop-color:#A2A2D7"/>
				<stop  offset="0.26" style="stop-color:#C6C6E7"/>
				<stop  offset="0.3881" style="stop-color:#F9F9FC"/>
				<stop  offset="0.4028" style="stop-color:#FFFFFF"/>
				<stop  offset="0.4228" style="stop-color:#FDFDFD"/>
				<stop  offset="0.4331" style="stop-color:#F5F5F5"/>
				<stop  offset="0.4412" style="stop-color:#E8E8E8"/>
				<stop  offset="0.4482" style="stop-color:#D5D5D5"/>
				<stop  offset="0.4544" style="stop-color:#BDBDBC"/>
				<stop  offset="0.4601" style="stop-color:#9F9F9D"/>
				<stop  offset="0.4653" style="stop-color:#7C7C7A"/>
				<stop  offset="0.4668" style="stop-color:#71716F"/>
				<stop  offset="0.5119" style="stop-color:#868685"/>
				<stop  offset="0.5822" style="stop-color:#A0A0A0"/>
				<stop  offset="0.6589" style="stop-color:#B4B5B5"/>
				<stop  offset="0.7442" style="stop-color:#C2C3C4"/>
				<stop  offset="0.845" style="stop-color:#CACBCC"/>
				<stop  offset="1" style="stop-color:#CDCECF"/>
			</linearGradient>
			<polygon style="fill:url(#SVGID_00000117669258869985812830000003561668920590918036_);" points="168.6,18.6 168.6,59.7 
				181.5,61.1 181.5,35 199.5,60.1 215,61.1 215,18.6 202.6,18.6 202.5,43.1 186,18.6 			"/>
			
				<linearGradient id="SVGID_00000134212128184555984320000010924307076452447651_" gradientUnits="userSpaceOnUse" x1="234.7919" y1="18.9396" x2="234.7919" y2="80.6895">
				<stop  offset="0" style="stop-color:#8383CA"/>
				<stop  offset="5.758243e-02" style="stop-color:#8B8BCE"/>
				<stop  offset="0.148" style="stop-color:#A2A2D7"/>
				<stop  offset="0.26" style="stop-color:#C6C6E7"/>
				<stop  offset="0.3881" style="stop-color:#F9F9FC"/>
				<stop  offset="0.4028" style="stop-color:#FFFFFF"/>
				<stop  offset="0.4228" style="stop-color:#FDFDFD"/>
				<stop  offset="0.4331" style="stop-color:#F5F5F5"/>
				<stop  offset="0.4412" style="stop-color:#E8E8E8"/>
				<stop  offset="0.4482" style="stop-color:#D5D5D5"/>
				<stop  offset="0.4544" style="stop-color:#BDBDBC"/>
				<stop  offset="0.4601" style="stop-color:#9F9F9D"/>
				<stop  offset="0.4653" style="stop-color:#7C7C7A"/>
				<stop  offset="0.4668" style="stop-color:#71716F"/>
				<stop  offset="0.5119" style="stop-color:#868685"/>
				<stop  offset="0.5822" style="stop-color:#A0A0A0"/>
				<stop  offset="0.6589" style="stop-color:#B4B5B5"/>
				<stop  offset="0.7442" style="stop-color:#C2C3C4"/>
				<stop  offset="0.845" style="stop-color:#CACBCC"/>
				<stop  offset="1" style="stop-color:#CDCECF"/>
			</linearGradient>
			<polygon style="fill:url(#SVGID_00000134212128184555984320000010924307076452447651_);" points="227.4,18.6 227.4,61.1 
				242.1,63.1 242.1,18.6 			"/>
			
				<linearGradient id="SVGID_00000120555931570473603690000007687120664039865511_" gradientUnits="userSpaceOnUse" x1="272.4706" y1="18.9396" x2="272.4706" y2="80.6895">
				<stop  offset="0" style="stop-color:#8383CA"/>
				<stop  offset="5.758243e-02" style="stop-color:#8B8BCE"/>
				<stop  offset="0.148" style="stop-color:#A2A2D7"/>
				<stop  offset="0.26" style="stop-color:#C6C6E7"/>
				<stop  offset="0.3881" style="stop-color:#F9F9FC"/>
				<stop  offset="0.4028" style="stop-color:#FFFFFF"/>
				<stop  offset="0.4228" style="stop-color:#FDFDFD"/>
				<stop  offset="0.4331" style="stop-color:#F5F5F5"/>
				<stop  offset="0.4412" style="stop-color:#E8E8E8"/>
				<stop  offset="0.4482" style="stop-color:#D5D5D5"/>
				<stop  offset="0.4544" style="stop-color:#BDBDBC"/>
				<stop  offset="0.4601" style="stop-color:#9F9F9D"/>
				<stop  offset="0.4653" style="stop-color:#7C7C7A"/>
				<stop  offset="0.4668" style="stop-color:#71716F"/>
				<stop  offset="0.5119" style="stop-color:#868685"/>
				<stop  offset="0.5822" style="stop-color:#A0A0A0"/>
				<stop  offset="0.6589" style="stop-color:#B4B5B5"/>
				<stop  offset="0.7442" style="stop-color:#C2C3C4"/>
				<stop  offset="0.845" style="stop-color:#CACBCC"/>
				<stop  offset="1" style="stop-color:#CDCECF"/>
			</linearGradient>
			<polygon style="fill:url(#SVGID_00000120555931570473603690000007687120664039865511_);" points="251.6,18.6 251.5,32.1 
				265,32.1 265,64.9 279.5,68.1 279.5,32.7 293.5,33.1 293.5,18.6 			"/>
			
				<linearGradient id="SVGID_00000067951977336982592770000003509832687420294837_" gradientUnits="userSpaceOnUse" x1="322.4382" y1="18.9396" x2="322.4382" y2="80.6895">
				<stop  offset="0" style="stop-color:#8383CA"/>
				<stop  offset="5.758243e-02" style="stop-color:#8B8BCE"/>
				<stop  offset="0.148" style="stop-color:#A2A2D7"/>
				<stop  offset="0.26" style="stop-color:#C6C6E7"/>
				<stop  offset="0.3881" style="stop-color:#F9F9FC"/>
				<stop  offset="0.4028" style="stop-color:#FFFFFF"/>
				<stop  offset="0.4228" style="stop-color:#FDFDFD"/>
				<stop  offset="0.4331" style="stop-color:#F5F5F5"/>
				<stop  offset="0.4412" style="stop-color:#E8E8E8"/>
				<stop  offset="0.4482" style="stop-color:#D5D5D5"/>
				<stop  offset="0.4544" style="stop-color:#BDBDBC"/>
				<stop  offset="0.4601" style="stop-color:#9F9F9D"/>
				<stop  offset="0.4653" style="stop-color:#7C7C7A"/>
				<stop  offset="0.4668" style="stop-color:#71716F"/>
				<stop  offset="0.5119" style="stop-color:#868685"/>
				<stop  offset="0.5822" style="stop-color:#A0A0A0"/>
				<stop  offset="0.6589" style="stop-color:#B4B5B5"/>
				<stop  offset="0.7442" style="stop-color:#C2C3C4"/>
				<stop  offset="0.845" style="stop-color:#CACBCC"/>
				<stop  offset="1" style="stop-color:#CDCECF"/>
			</linearGradient>
			<polygon style="fill:url(#SVGID_00000067951977336982592770000003509832687420294837_);" points="297.6,18.6 315.7,61.1 
				315.7,73.7 330.5,79.1 329.4,63.1 347.3,18.6 331.9,18.6 322.4,42.5 314.3,18.6 			"/>
		</g>
	</g>
</g>
</svg>
