<?xml version="1.0" standalone="no"?>
<!DOCTYPE svg PUBLIC "-//W3C//DTD SVG 20010904//EN"
 "http://www.w3.org/TR/2001/REC-SVG-20010904/DTD/svg10.dtd">
<svg version="1.0" xmlns="http://www.w3.org/2000/svg"
 width="1024.000000pt" height="1024.000000pt" viewBox="0 0 1024.000000 1024.000000"
 preserveAspectRatio="xMidYMid meet">
<metadata>
Created by potrace 1.14, written by Peter Selinger 2001-2017
</metadata>
<g transform="translate(0.000000,1024.000000) scale(0.100000,-0.100000)"
fill="#000000" stroke="none">
<path d="M5135 9047 c-113 -38 -191 -105 -239 -207 -27 -58 -31 -75 -31 -155
0 -78 4 -98 28 -150 52 -112 143 -180 259 -192 l61 -6 -73 -27 c-80 -29 -88
-39 -89 -106 l-1 -41 81 24 c101 29 148 29 183 2 14 -11 26 -24 26 -27 0 -4
-37 -15 -82 -25 -46 -9 -113 -26 -149 -37 l-66 -20 -7 -51 c-4 -28 -5 -53 -3
-55 2 -2 48 6 103 18 62 13 114 18 136 14 33 -6 78 -38 78 -55 0 -5 -24 -11
-52 -14 -49 -5 -186 -41 -250 -66 -26 -10 -28 -15 -28 -64 l0 -54 98 23 c122
30 181 31 216 3 14 -11 26 -24 26 -28 0 -4 -28 -13 -62 -19 -35 -7 -113 -27
-175 -43 -122 -34 -123 -34 -123 -118 0 -37 2 -42 18 -36 51 21 127 36 210 42
87 6 94 5 117 -17 14 -13 25 -27 25 -30 0 -4 -23 -10 -51 -14 -40 -6 -150 -34
-311 -82 -15 -4 -18 -17 -18 -64 l0 -58 69 18 c150 40 274 36 316 -9 19 -22
15 -25 -65 -36 -44 -6 -242 -55 -307 -76 -30 -10 -33 -14 -34 -52 0 -23 -3
-60 -7 -81 l-7 -39 -120 -22 c-148 -27 -209 -44 -347 -97 -104 -39 -108 -40
-170 -29 -191 33 -347 -112 -309 -285 32 -139 179 -206 309 -140 59 30 84 59
108 126 18 49 20 51 93 79 111 43 289 89 421 108 162 24 495 24 648 0 133 -21
324 -74 414 -115 57 -26 65 -33 77 -70 42 -127 175 -185 296 -128 160 74 179
274 37 383 -57 43 -97 53 -223 53 -90 0 -117 4 -175 26 -99 37 -231 71 -369
95 -66 11 -120 21 -121 22 -1 1 -9 133 -18 292 -17 298 -61 908 -71 981 -6 39
-4 42 42 78 101 78 150 193 141 326 -10 134 -91 249 -218 308 -66 31 -200 40
-265 19z m80 -159 l25 -11 -32 -20 c-87 -51 -123 -113 -115 -196 3 -31 9 -67
13 -80 l7 -25 -34 20 c-19 11 -45 36 -57 55 -20 29 -23 43 -19 90 6 72 28 112
79 149 44 32 89 38 133 18z"/>
<path d="M5220 6145 l0 -555 168 -173 c240 -245 357 -372 490 -529 l115 -137
62 57 c33 31 119 105 191 163 414 338 732 488 1032 489 240 0 441 -83 615
-256 208 -206 298 -487 253 -792 -36 -244 -121 -419 -273 -564 -170 -161 -381
-236 -632 -225 -258 11 -469 102 -757 327 -236 185 -391 334 -670 644 -479
535 -868 937 -1059 1097 -242 202 -480 345 -762 459 -380 152 -807 171 -1153
52 -643 -223 -1096 -791 -1161 -1456 -25 -263 13 -559 102 -784 185 -468 565
-838 1043 -1017 385 -143 828 -116 1286 80 137 58 244 119 428 242 95 63 174
114 176 112 2 -2 13 -71 25 -154 91 -626 206 -1106 442 -1845 65 -202 59 -190
71 -160 32 84 195 619 266 875 97 346 193 783 207 937 l6 63 -103 106 c-57 58
-172 177 -256 265 l-154 159 6 -1015 5 -1015 -20 80 c-96 383 -166 839 -214
1380 -8 92 -24 552 -26 720 l-1 150 -147 150 c-81 82 -181 186 -223 230 l-76
79 -77 -69 c-440 -399 -716 -577 -994 -642 -104 -24 -330 -24 -421 1 -142 39
-260 107 -374 215 -128 123 -215 274 -262 456 -21 83 -26 123 -26 235 -1 239
58 408 208 591 233 285 568 379 927 258 420 -140 930 -559 1623 -1333 577
-645 827 -871 1154 -1045 417 -221 846 -284 1245 -184 321 80 561 217 800 457
242 243 378 483 464 821 49 188 65 456 41 655 -58 475 -336 917 -750 1193
-555 371 -1258 365 -1922 -15 -122 -70 -207 -126 -346 -227 -40 -30 -74 -52
-75 -50 -2 2 2 103 9 224 16 268 33 699 28 704 -14 15 -404 71 -499 71 l-55 0
0 -555z m-230 -1210 c114 -104 344 -336 440 -445 93 -105 282 -353 438 -576
l84 -119 -124 121 c-385 375 -689 727 -923 1069 -54 78 -61 83 85 -50z"/>
<path d="M4910 6663 c-14 -2 -67 -13 -117 -24 l-93 -21 0 -41 c1 -23 7 -154
14 -292 l14 -250 53 -48 c82 -74 189 -160 193 -156 2 2 1 191 -3 419 -7 450
-2 423 -61 413z"/>
</g>
</svg>
